<?xml version="1.0" encoding="UTF-8"?>
<svg width="300" height="400" viewBox="0 0 300 400" xmlns="http://www.w3.org/2000/svg">
  <!-- Background -->
  <rect width="100%" height="100%" fill="#1a1a1a"/>
  
  <!-- Person 1 (left) -->
  <g transform="translate(100,200)">
    <!-- Body -->
    <path d="M0,0 C-10,-20 -20,-40 -15,-60 C-10,-80 10,-80 15,-60 C20,-40 10,-20 0,0" fill="#333333"/>
    <!-- Head -->
    <circle cx="0" cy="-70" r="10" fill="#333333"/>
    <!-- Arms -->
    <path d="M-15,-50 L-35,-30 M15,-50 L35,-30" stroke="#333333" stroke-width="5"/>
    <!-- Legs -->
    <path d="M-5,0 L-20,30 M5,0 L20,30" stroke="#333333" stroke-width="5"/>
  </g>
  
  <!-- Person 2 (right) -->
  <g transform="translate(200,200)">
    <!-- Body -->
    <path d="M0,0 C-10,-20 -20,-40 -15,-60 C-10,-80 10,-80 15,-60 C20,-40 10,-20 0,0" fill="#4d4d4d"/>
    <!-- Head -->
    <circle cx="0" cy="-70" r="10" fill="#4d4d4d"/>
    <!-- Arms -->
    <path d="M-15,-50 L-35,-30 M15,-50 L35,-30" stroke="#4d4d4d" stroke-width="5"/>
    <!-- Legs -->
    <path d="M-5,0 L-20,30 M5,0 L20,30" stroke="#4d4d4d" stroke-width="5"/>
  </g>
</svg>